<svg width="646" height="510" viewBox="0 0 646 510" fill="none" xmlns="http://www.w3.org/2000/svg">
    <path d="M449.14 509.11H306.881C306.672 509.11 306.471 509.023 306.323 508.869C306.175 508.714 306.092 508.505 306.092 508.286C306.092 508.068 306.175 507.858 306.323 507.704C306.471 507.549 306.672 507.463 306.881 507.463H448.883C449.092 507.463 449.292 507.549 449.44 507.704C449.588 507.858 449.671 508.068 449.671 508.286C449.671 508.741 449.576 509.11 449.14 509.11Z" fill="#CACACA"/>
    <path d="M303.254 427.386C303.254 427.386 311.467 413.319 322.012 421.637C332.557 429.954 352.085 443.988 352.085 443.988C352.085 443.988 356.085 452.964 345.732 449.593C335.38 446.221 301.586 440.795 301.586 440.795L303.254 427.386Z" fill="#FEB8B8"/>
    <path d="M352.598 483.67C353.613 475.155 358.668 466.765 366.447 463.994C363.379 472.758 363.38 482.373 366.449 491.137C367.644 494.512 369.31 498.137 368.186 501.539C367.38 503.642 365.833 505.341 363.862 506.288C361.906 507.214 359.845 507.876 357.729 508.256L357.316 508.612C353.988 500.766 351.584 492.185 352.598 483.67Z" fill="#FC791C"/>
    <path d="M366.52 464.154C361.989 469.453 359.174 476.107 358.473 483.172C358.296 484.69 358.349 486.228 358.631 487.728C358.951 489.181 359.638 490.518 360.62 491.6C361.597 492.557 362.459 493.634 363.188 494.808C363.507 495.447 363.693 496.148 363.735 496.867C363.776 497.586 363.671 498.306 363.427 498.98C362.779 500.625 361.82 502.118 360.609 503.369C359.347 504.825 358.015 506.317 357.479 508.247C357.414 508.481 357.07 508.362 357.135 508.129C358.068 504.77 361.191 502.862 362.681 499.836C363.065 499.156 363.294 498.393 363.352 497.606C363.411 496.819 363.295 496.029 363.016 495.295C362.34 494.058 361.48 492.941 360.468 491.986C359.495 490.945 358.781 489.672 358.389 488.276C358.034 486.796 357.924 485.263 358.063 483.743C358.322 480.317 359.096 476.955 360.356 473.781C361.775 470.149 363.779 466.797 366.28 463.87C366.435 463.689 366.673 463.974 366.52 464.154H366.52Z" fill="white"/>
    <path d="M358.568 480.883C357.449 480.6 356.463 479.91 355.786 478.937C355.108 477.964 354.785 476.772 354.872 475.573C354.89 475.33 355.252 475.349 355.234 475.591C355.15 476.708 355.452 477.819 356.085 478.723C356.717 479.628 357.638 480.267 358.682 480.524C358.909 480.581 358.794 480.939 358.568 480.883H358.568Z" fill="white"/>
    <path d="M360.101 491.141C362.123 489.881 363.615 487.871 364.281 485.513C364.347 485.28 364.691 485.399 364.625 485.632C363.928 488.084 362.371 490.172 360.264 491.479C360.063 491.603 359.901 491.265 360.101 491.141Z" fill="white"/>
    <path d="M362.112 470.507C362.524 470.711 362.977 470.806 363.432 470.782C363.886 470.757 364.328 470.616 364.717 470.369C364.917 470.242 365.078 470.581 364.88 470.707C364.449 470.977 363.961 471.133 363.458 471.161C362.956 471.189 362.455 471.088 361.999 470.867C361.954 470.849 361.917 470.815 361.896 470.771C361.875 470.727 361.87 470.675 361.884 470.628C361.899 470.58 361.931 470.541 361.974 470.518C362.017 470.496 362.067 470.492 362.112 470.507L362.112 470.507Z" fill="white"/>
    <path d="M390.151 479.202C390.028 479.285 389.906 479.368 389.784 479.454C388.145 480.579 386.597 481.841 385.155 483.227C385.042 483.332 384.929 483.441 384.819 483.55C381.377 486.928 378.567 490.945 376.53 495.394C375.721 497.166 375.042 498.999 374.5 500.878C373.751 503.473 373.136 506.349 371.654 508.471C371.501 508.694 371.336 508.908 371.158 509.11H357.758C357.727 509.094 357.697 509.081 357.666 509.065L357.131 509.09C357.152 508.992 357.177 508.889 357.198 508.79C357.21 508.733 357.226 508.675 357.238 508.618C357.247 508.58 357.256 508.541 357.262 508.506C357.265 508.494 357.269 508.481 357.272 508.471C357.278 508.436 357.287 508.404 357.293 508.372C357.428 507.801 357.566 507.23 357.709 506.658L357.712 506.652C358.759 502.288 360.298 498.068 362.298 494.082C362.359 493.964 362.42 493.843 362.487 493.725C363.413 491.961 364.476 490.278 365.664 488.695C366.317 487.83 367.012 487 367.746 486.208C369.646 484.167 371.841 482.45 374.252 481.121C379.058 478.471 384.623 477.456 389.759 479.075C389.891 479.116 390.019 479.158 390.151 479.202Z" fill="#FC791C"/>
    <path d="M390.12 479.38C383.447 480.763 377.362 484.307 372.728 489.507C371.711 490.608 370.867 491.869 370.226 493.244C369.644 494.605 369.421 496.104 369.582 497.585C369.81 498.963 369.877 500.366 369.782 501.761C369.668 502.472 369.412 503.149 369.031 503.749C368.649 504.349 368.15 504.858 367.567 505.243C366.1 506.149 364.474 506.738 362.786 506.975C360.938 507.345 359.014 507.699 357.473 508.903C357.286 509.049 357.08 508.738 357.266 508.592C359.948 506.497 363.543 506.936 366.477 505.457C367.176 505.155 367.799 504.691 368.299 504.099C368.8 503.507 369.164 502.803 369.363 502.042C369.538 500.629 369.495 499.197 369.237 497.798C369.061 496.356 369.225 494.89 369.717 493.529C370.288 492.125 371.084 490.831 372.071 489.705C374.254 487.133 376.811 484.935 379.648 483.192C382.875 481.184 386.408 479.767 390.093 479.003C390.321 478.955 390.347 479.333 390.12 479.38H390.12Z" fill="white"/>
    <path d="M374.125 487.741C373.395 486.811 373.006 485.64 373.026 484.437C373.046 483.235 373.475 482.079 374.237 481.177C374.391 480.995 374.67 481.237 374.515 481.419C373.804 482.259 373.405 483.335 373.388 484.455C373.371 485.574 373.738 486.664 374.423 487.525C374.572 487.713 374.273 487.927 374.125 487.741Z" fill="white"/>
    <path d="M369.431 496.892C371.772 497.157 374.123 496.49 376.014 495.026C376.201 494.881 376.408 495.192 376.22 495.337C374.25 496.857 371.802 497.545 369.366 497.264C369.134 497.237 369.2 496.865 369.431 496.892H369.431Z" fill="white"/>
    <path d="M382.936 481.681C383.147 482.103 383.455 482.463 383.832 482.729C384.209 482.996 384.643 483.161 385.096 483.209C385.328 483.232 385.262 483.604 385.031 483.581C384.531 483.525 384.051 483.343 383.634 483.049C383.217 482.756 382.875 482.36 382.639 481.897C382.613 481.855 382.603 481.805 382.612 481.756C382.62 481.707 382.646 481.663 382.684 481.634C382.724 481.605 382.772 481.594 382.82 481.603C382.867 481.612 382.909 481.64 382.936 481.681Z" fill="white"/>
    <path d="M225.879 476.989H83.6203C83.4111 476.989 83.2104 476.903 83.0625 476.748C82.9145 476.594 82.8314 476.384 82.8314 476.166C82.8314 475.947 82.9145 475.738 83.0625 475.583C83.2104 475.429 83.4111 475.342 83.6203 475.342H225.622C225.831 475.342 226.032 475.429 226.179 475.583C226.327 475.738 226.411 475.947 226.411 476.166C226.411 476.621 226.315 476.989 225.879 476.989Z" fill="#CACACA"/>
    <path d="M583.254 476.166H440.995C440.786 476.166 440.585 476.08 440.437 475.925C440.289 475.771 440.206 475.561 440.206 475.343C440.206 475.124 440.289 474.915 440.437 474.76C440.585 474.606 440.786 474.519 440.995 474.519H582.996C583.205 474.519 583.406 474.606 583.554 474.76C583.702 474.915 583.785 475.124 583.785 475.343C583.785 475.798 583.69 476.166 583.254 476.166Z" fill="#CACACA"/>
    <path d="M73.7252 338.048C76.3425 316.076 89.3858 294.428 109.458 287.278C101.542 309.893 101.544 334.702 109.462 357.316C112.547 366.025 116.846 375.377 113.945 384.155C112.14 389.617 107.724 393.796 102.788 396.409C97.8515 399.022 92.3731 400.267 86.9634 401.488L85.8987 402.407C77.3109 382.162 71.1079 360.02 73.7252 338.048Z" fill="#FDA668"/>
    <path d="M109.66 287.693C97.9714 301.366 90.7064 318.537 88.8972 336.765C88.441 340.682 88.5791 344.65 89.3063 348.522C90.1315 352.27 91.9031 355.719 94.4369 358.511C96.7494 361.163 99.409 363.597 101.064 366.79C101.887 368.437 102.368 370.248 102.474 372.103C102.581 373.958 102.31 375.816 101.681 377.554C100.22 381.929 97.3406 385.494 94.4089 388.878C91.1539 392.636 87.7158 396.485 86.3322 401.467C86.1645 402.071 85.2772 401.764 85.4446 401.161C87.8519 392.494 95.9113 387.57 99.7548 379.764C101.548 376.121 102.301 371.892 100.62 368.047C99.1494 364.684 96.4089 362.172 94.0452 359.508C91.5352 356.822 89.6932 353.536 88.6801 349.936C87.7663 346.115 87.4821 342.16 87.8395 338.239C88.5093 329.399 90.5063 320.725 93.7574 312.532C97.4182 303.161 102.587 294.513 109.042 286.962C109.441 286.494 110.057 287.229 109.66 287.693Z" fill="white"/>
    <path d="M89.1469 330.86C86.2585 330.127 83.7135 328.347 81.9662 325.837C80.219 323.327 79.3833 320.25 79.6085 317.156C79.6562 316.53 80.59 316.578 80.5423 317.205C80.3276 320.086 81.1062 322.952 82.7378 325.286C84.3694 327.62 86.7465 329.268 89.4399 329.933C90.0251 330.078 89.7287 331.004 89.1469 330.86Z" fill="white"/>
    <path d="M93.0879 357.327C98.3047 354.075 102.156 348.89 103.873 342.805C104.043 342.202 104.93 342.509 104.761 343.111C102.962 349.439 98.9441 354.827 93.5083 358.198C92.99 358.519 92.5724 357.646 93.0879 357.327Z" fill="white"/>
    <path d="M98.2829 304.085C99.344 304.612 100.514 304.855 101.687 304.792C102.86 304.73 104 304.365 105.005 303.729C105.519 303.401 105.936 304.275 105.425 304.601C104.312 305.298 103.053 305.7 101.756 305.771C100.46 305.843 99.1671 305.582 97.9899 305.012C97.8746 304.968 97.7797 304.88 97.7245 304.765C97.6693 304.651 97.6579 304.519 97.6926 304.396C97.732 304.273 97.8161 304.172 97.9266 304.114C98.0372 304.056 98.1652 304.045 98.2829 304.085Z" fill="white"/>
    <path d="M170.637 326.521C170.321 326.735 170.006 326.95 169.69 327.172C165.463 330.074 161.468 333.329 157.746 336.907C157.454 337.178 157.162 337.458 156.878 337.738C147.999 346.456 140.747 356.82 135.492 368.302C133.404 372.872 131.653 377.602 130.253 382.451C128.32 389.146 126.735 396.567 122.909 402.044C122.515 402.62 122.089 403.17 121.63 403.691H87.053C86.9744 403.65 86.8954 403.617 86.8165 403.576L85.4359 403.641C85.4914 403.386 85.5542 403.123 85.6096 402.867C85.6412 402.719 85.6805 402.571 85.7121 402.423C85.7356 402.324 85.7595 402.225 85.7753 402.134C85.783 402.101 85.7911 402.068 85.7988 402.044C85.8146 401.953 85.8385 401.871 85.8542 401.788C86.2013 400.314 86.5589 398.84 86.927 397.366C86.927 397.357 86.927 397.357 86.9347 397.349C89.7671 386.124 93.5221 375.047 98.7682 364.917C98.9261 364.612 99.0837 364.299 99.2574 363.994C101.646 359.442 104.388 355.101 107.454 351.015C109.14 348.783 110.933 346.641 112.827 344.599C117.728 339.331 123.394 334.901 129.614 331.471C142.016 324.635 156.373 322.016 169.627 326.192C169.966 326.299 170.298 326.406 170.637 326.521Z" fill="#FC791C"/>
    <path d="M170.558 326.98C153.34 330.55 137.637 339.693 125.679 353.11C123.056 355.951 120.878 359.206 119.226 362.755C117.723 366.266 117.149 370.133 117.562 373.955C117.878 377.526 118.599 381.141 118.078 384.73C117.786 386.564 117.125 388.312 116.14 389.86C115.155 391.408 113.868 392.721 112.363 393.713C108.674 396.288 104.319 397.324 100.026 398.184C95.26 399.138 90.2949 400.051 86.3171 403.159C85.8352 403.535 85.3036 402.733 85.7849 402.357C92.7056 396.949 101.98 398.084 109.551 394.267C113.084 392.486 116.124 389.582 116.999 385.455C117.764 381.846 117.025 378.118 116.674 374.505C116.219 370.783 116.643 367.001 117.91 363.49C119.384 359.865 121.438 356.528 123.985 353.623C129.618 346.985 136.215 341.314 143.535 336.817C151.863 331.635 160.978 327.979 170.486 326.007C171.075 325.885 171.143 326.859 170.558 326.98H170.558Z" fill="white"/>
    <path d="M129.289 348.553C127.405 346.153 126.399 343.133 126.452 340.03C126.504 336.928 127.612 333.946 129.576 331.617C129.975 331.147 130.693 331.772 130.293 332.243C128.46 334.408 127.429 337.186 127.386 340.075C127.343 342.964 128.29 345.774 130.057 347.998C130.441 348.482 129.67 349.034 129.289 348.553H129.289Z" fill="white"/>
    <path d="M117.172 372.166C123.213 372.848 129.278 371.129 134.158 367.35C134.642 366.975 135.173 367.778 134.691 368.152C129.605 372.075 123.29 373.851 117.005 373.126C116.406 373.056 116.577 372.097 117.172 372.166Z" fill="white"/>
    <path d="M152.026 332.918C152.57 334.006 153.364 334.935 154.336 335.623C155.309 336.31 156.43 336.735 157.599 336.859C158.198 336.92 158.027 337.88 157.432 337.819C156.141 337.676 154.903 337.205 153.827 336.448C152.751 335.69 151.869 334.669 151.258 333.474C151.191 333.366 151.166 333.236 151.188 333.11C151.21 332.984 151.277 332.871 151.376 332.795C151.478 332.722 151.603 332.694 151.725 332.717C151.847 332.74 151.955 332.812 152.026 332.918Z" fill="white"/>
    <path d="M582.828 302.795C578.805 269.023 558.757 235.748 527.905 224.758C540.072 259.519 540.07 297.651 527.898 332.41C523.157 345.797 516.549 360.171 521.009 373.663C523.783 382.058 530.57 388.482 538.157 392.498C545.745 396.514 554.165 398.428 562.48 400.304L564.117 401.717C577.317 370.6 586.851 336.566 582.828 302.795Z" fill="#FDA668"/>
    <path d="M527.599 225.397C545.566 246.412 556.732 272.804 559.513 300.822C560.074 306.829 560.142 312.973 558.884 318.893C557.616 324.654 554.893 329.955 550.998 334.246C547.444 338.323 543.356 342.063 540.813 346.971C538.132 352.144 538.029 358.022 539.864 363.517C542.11 370.24 546.535 375.72 551.041 380.922C556.045 386.698 561.329 392.615 563.456 400.272C563.714 401.2 565.077 400.728 564.82 399.801C561.12 386.479 548.732 378.912 542.825 366.913C540.068 361.314 538.911 354.814 541.495 348.903C543.755 343.735 547.967 339.874 551.6 335.779C555.415 331.478 558.34 326.76 559.847 321.067C561.388 315.243 561.55 309.083 561.139 303.088C560.109 289.501 557.04 276.167 552.043 263.575C546.416 249.171 538.471 235.878 528.55 224.272C527.936 223.554 526.989 224.683 527.599 225.397Z" fill="white"/>
    <path d="M559.126 291.746C563.566 290.62 567.478 287.884 570.163 284.026C572.849 280.168 574.133 275.438 573.787 270.683C573.714 269.721 572.278 269.794 572.352 270.758C572.682 275.185 571.485 279.591 568.977 283.178C566.469 286.766 562.816 289.299 558.676 290.321C557.776 290.545 558.232 291.968 559.126 291.746H559.126Z" fill="white"/>
    <path d="M553.059 332.426C545.041 327.428 539.122 319.458 536.482 310.106C536.221 309.18 534.857 309.651 535.118 310.577C537.882 320.303 544.058 328.584 552.413 333.766C553.21 334.259 553.852 332.917 553.059 332.426Z" fill="white"/>
    <path d="M545.084 250.592C543.453 251.401 541.656 251.775 539.852 251.679C538.049 251.584 536.297 251.022 534.753 250.045C533.962 249.541 533.321 250.884 534.106 251.384C535.817 252.456 537.753 253.074 539.745 253.184C541.737 253.294 543.725 252.893 545.535 252.016C545.712 251.949 545.858 251.813 545.943 251.637C546.027 251.461 546.045 251.258 545.992 251.069C545.931 250.881 545.802 250.725 545.632 250.636C545.462 250.547 545.265 250.531 545.084 250.592Z" fill="white"/>
    <path d="M433.864 285.078C434.349 285.407 434.834 285.736 435.32 286.078C441.817 290.538 447.957 295.542 453.678 301.04C454.126 301.458 454.575 301.889 455.012 302.319C468.66 315.719 479.806 331.648 487.884 349.296C491.092 356.322 493.784 363.592 495.936 371.044C498.907 381.335 501.344 392.741 507.225 401.159C507.829 402.045 508.485 402.89 509.189 403.691H562.337C562.457 403.628 562.579 403.577 562.7 403.514L564.822 403.615C564.737 403.223 564.64 402.817 564.555 402.425C564.507 402.197 564.446 401.969 564.398 401.742C564.361 401.59 564.325 401.438 564.3 401.298C564.289 401.248 564.276 401.197 564.264 401.159C564.24 401.02 564.203 400.893 564.179 400.767C563.646 398.501 563.096 396.235 562.53 393.969C562.53 393.956 562.53 393.956 562.518 393.944C558.165 376.69 552.393 359.664 544.33 344.093C544.087 343.625 543.845 343.144 543.578 342.675C539.906 335.678 535.692 329.006 530.979 322.725C528.388 319.295 525.632 316.003 522.721 312.864C515.187 304.767 506.479 297.958 496.918 292.686C477.856 282.179 455.788 278.153 435.416 284.571C434.895 284.736 434.385 284.9 433.864 285.078Z" fill="#FC791C"/>
    <path d="M433.983 285.782C460.449 291.269 484.585 305.323 502.964 325.946C506.875 330.389 510.473 335.252 512.883 340.77C515.193 346.167 516.076 352.111 515.441 357.985C514.954 363.474 513.847 369.03 514.647 374.547C515.49 380.363 518.798 385.12 523.432 388.354C529.102 392.311 535.796 393.905 542.394 395.226C549.72 396.693 557.351 398.096 563.465 402.873C564.206 403.452 565.023 402.218 564.283 401.64C553.646 393.329 539.391 395.073 527.754 389.205C522.324 386.467 517.651 382.005 516.306 375.661C515.13 370.114 516.267 364.384 516.805 358.83C517.371 352.999 516.986 347.393 514.905 341.9C512.777 336.281 509.354 331.261 505.568 326.733C496.91 316.532 486.77 307.815 475.518 300.902C462.719 292.938 448.708 287.318 434.094 284.286C433.189 284.099 433.085 285.596 433.983 285.782V285.782Z" fill="white"/>
    <path d="M497.423 318.942C500.319 315.253 501.864 310.609 501.783 305.841C501.703 301.072 500.001 296.489 496.982 292.909C496.368 292.187 495.265 293.148 495.879 293.871C498.696 297.199 500.281 301.469 500.348 305.909C500.414 310.35 498.958 314.669 496.242 318.088C495.653 318.831 496.837 319.681 497.423 318.942L497.423 318.942Z" fill="white"/>
    <path d="M516.036 355.236C506.751 356.285 497.429 353.642 489.928 347.834C489.185 347.258 488.368 348.492 489.11 349.067C496.927 355.096 506.633 357.825 516.293 356.711C517.214 356.605 516.952 355.129 516.036 355.236Z" fill="white"/>
    <path d="M462.471 294.91C461.635 296.581 460.415 298.01 458.92 299.067C457.425 300.124 455.702 300.777 453.906 300.967C452.984 301.062 453.247 302.537 454.163 302.443C456.146 302.223 458.049 301.5 459.703 300.335C461.357 299.171 462.713 297.602 463.652 295.764C463.755 295.599 463.793 295.399 463.759 295.205C463.725 295.011 463.622 294.838 463.471 294.721C463.314 294.609 463.121 294.566 462.933 294.601C462.746 294.636 462.58 294.748 462.471 294.91V294.91Z" fill="white"/>
    <path d="M644.786 404.514H0.788896C0.579668 404.514 0.379009 404.428 0.231062 404.273C0.083115 404.119 0 403.909 0 403.691C0 403.472 0.083115 403.263 0.231062 403.108C0.379009 402.954 0.579668 402.867 0.788896 402.867H644.528C644.738 402.867 644.938 402.954 645.086 403.108C645.234 403.263 645.317 403.472 645.317 403.691C645.317 404.146 645.222 404.514 644.786 404.514Z" fill="#CACACA"/>
    <path d="M262.907 444.871C254.07 444.871 245.979 443.987 239.551 441.897C231.911 439.413 227.114 435.397 225.291 429.95C224.434 427.638 224.179 425.13 224.55 422.681C224.92 420.232 225.905 417.929 227.403 416.005C238.706 400.63 277.929 396.293 283.192 395.78L293.869 374.674C294.552 369.638 291.32 365.826 296.904 365.731L362.962 364.794C368.446 364.674 366.89 368.219 367.829 373.129L377.893 391.886L334.578 410.971L341.127 427.63L340.699 427.89C328.022 435.567 291.565 444.869 262.907 444.871Z" fill="#2F2E41"/>
    <path d="M371.895 392.686C371.895 392.686 432.388 385.459 428.443 414.368C424.498 443.276 378.471 463.753 308.772 414.368L316.663 399.913C316.663 399.913 342.635 398.565 358.416 391.338L371.895 392.686Z" fill="#2F2E41"/>
    <path d="M286.25 261.72C286.25 261.72 274.752 259.538 271.617 278.088C268.481 296.638 263.458 340.578 263.458 340.578L247.862 397.021C246.023 398.041 244.499 399.585 243.469 401.475C242.44 403.365 241.946 405.521 242.046 407.693C242.146 409.864 242.837 411.961 244.036 413.739C245.235 415.516 246.894 416.901 248.819 417.731C250.744 418.561 252.855 418.802 254.906 418.426C256.957 418.05 258.864 417.072 260.403 415.607C261.941 414.143 263.049 412.251 263.597 410.153C264.144 408.056 264.109 405.839 263.495 403.761L284.363 343.856L288.34 292.277V265.251C288.34 264.518 288.145 263.799 287.775 263.176C287.406 262.552 286.878 262.048 286.25 261.72Z" fill="#FEB8B8"/>
    <path d="M367.177 261.72C367.177 261.72 378.675 259.538 381.81 278.088C384.946 296.638 389.969 340.578 389.969 340.578L405.565 397.021C407.404 398.041 408.928 399.585 409.958 401.475C410.988 403.365 411.481 405.521 411.381 407.693C411.281 409.864 410.591 411.961 409.391 413.739C408.192 415.516 406.533 416.901 404.608 417.731C402.684 418.561 400.572 418.802 398.521 418.426C396.47 418.05 394.564 417.072 393.025 415.607C391.486 414.143 390.378 412.251 389.83 410.153C389.283 408.056 389.318 405.839 389.932 403.761L369.065 343.856L365.087 292.277V265.251C365.087 264.518 365.282 263.799 365.652 263.176C366.021 262.552 366.549 262.048 367.177 261.72Z" fill="#FEB8B8"/>
    <path d="M366.304 246.387L344.557 237.896L302.404 237.328L284.259 246.387L289.355 276.964C289.355 276.964 279.066 295.152 290.395 313.343L292.937 378.16C292.937 378.16 333.578 402.763 367.882 373.219L360.129 312.954C360.129 312.954 373.097 284.994 363.045 274.606L366.304 246.387Z" fill="#FE7B1D"/>
    <path d="M357.446 255.888L366.304 246.387C366.304 246.387 385.635 257.002 385.237 292.507L360.851 284.661L357.446 255.888Z" fill="#FE7B1D"/>
    <path d="M294.101 255.889L284.69 246.064C284.69 246.064 268.084 259.473 268.482 294.978L290.695 284.662L294.101 255.889Z" fill="#FE7B1D"/>
    <path d="M355.443 420.362C355.443 420.362 348.669 405.483 337.356 412.616C326.043 419.749 305.228 431.596 305.228 431.596C305.228 431.596 300.36 440.092 310.991 437.857C321.622 435.623 355.773 433.879 355.773 433.879L355.443 420.362Z" fill="#FEB8B8"/>
    <path d="M336.63 154.379C336.726 154.283 336.826 154.197 336.92 154.098C342.974 147.779 344.2 138.813 339.66 134.074C335.37 129.594 327.467 130.498 321.502 135.944C316.387 130.861 309.529 129.444 305.091 132.953C299.972 137 300.012 146.056 305.18 153.181C305.534 153.669 305.905 154.13 306.287 154.574C299.409 157.202 293.471 161.972 289.275 168.24C285.08 174.507 282.83 181.968 282.83 189.614V225.127C282.83 226.169 283.027 227.2 283.408 228.162C283.79 229.124 284.35 229.998 285.055 230.734C285.76 231.471 286.598 232.055 287.519 232.453C288.441 232.852 289.429 233.057 290.426 233.057H353.298C355.245 233.057 357.112 232.25 358.489 230.812C359.865 229.375 360.639 227.426 360.639 225.393V189.614C360.638 181.865 358.325 174.309 354.023 167.995C349.72 161.681 343.641 156.922 336.63 154.379Z" fill="#2F2E41"/>
    <path d="M343.82 220.392C355.471 208.228 355.471 188.508 343.82 176.345C332.168 164.181 313.278 164.181 301.627 176.345C289.976 188.508 289.976 208.228 301.627 220.392C313.278 232.555 332.168 232.555 343.82 220.392Z" fill="#FFB6B6"/>
    <path d="M291.379 178.777C298.197 183.683 306.289 186.294 314.569 186.259C311.615 188.397 308.253 189.841 304.713 190.492C315.722 192.957 327.1 193.024 338.134 190.688C340.587 190.277 342.954 189.429 345.131 188.179C346.215 187.547 347.16 186.683 347.905 185.644C348.649 184.606 349.175 183.415 349.449 182.15C350.182 177.777 346.918 173.804 343.526 171.126C338.333 167.089 332.345 164.307 325.995 162.983C319.646 161.658 313.093 161.824 306.813 163.467C302.711 164.574 298.603 166.444 295.939 169.882C293.275 173.32 292.486 178.621 295.024 182.162L291.379 178.777Z" fill="#2F2E41"/>
    <path d="M131.804 116.625L132.744 115.301L157.791 134.697C156.43 130.366 151.612 116.636 143.714 111.158C134.279 104.614 127.64 106.65 124.024 112.333C120.407 118.016 121.181 125.193 130.617 131.738C138.615 137.285 152.863 136.514 157.02 136.15L131.804 116.625Z" fill="#FDA668"/>
    <path d="M508.653 10.4365L509.816 11.5504L488.733 35.5392C493.001 34.5763 506.581 31.0019 512.622 23.3712C519.838 14.2551 518.589 7.15076 513.551 2.8045C508.513 -1.54175 501.595 -1.48419 494.378 7.63194C488.261 15.3593 487.514 30.2332 487.428 34.5871L508.653 10.4365Z" fill="#FDA668"/>
    <path d="M168.641 266.571L169.804 267.684L148.721 291.673C152.989 290.71 166.569 287.136 172.61 279.505C179.826 270.389 178.577 263.285 173.539 258.939C168.501 254.592 161.583 254.65 154.366 263.766C148.249 271.493 147.502 286.367 147.416 290.721L168.641 266.571Z" fill="#FC791C"/>
    <path d="M346.912 37.9262L348.278 38.7514L332.66 66.9301C336.627 65.0271 349.147 58.4729 353.465 49.6597C358.623 39.131 355.933 32.4763 350.115 29.3694C344.296 26.2626 337.553 27.8798 332.394 38.4087C328.022 47.3336 330.371 62.0245 331.189 66.2949L346.912 37.9262Z" fill="#FC791C"/>
    <path d="M492.516 212.114L493.882 212.939L478.264 241.118C482.231 239.215 494.751 232.66 499.069 223.847C504.227 213.318 501.537 206.664 495.718 203.557C489.9 200.45 483.157 202.067 477.998 212.596C473.625 221.521 475.975 236.212 476.793 240.482L492.516 212.114Z" fill="#FDA668"/>
    </svg>
    